<svg xmlns="http://www.w3.org/2000/svg" width="1596" height="251" viewBox="0 0 1596 251" fill="none"><path d="M1542.65 246.501V222.769C1541.58 225.149 1538.84 228.598 1534.44 233.119C1530.16 237.639 1524.45 241.743 1517.31 245.431C1510.17 248.999 1501.85 250.784 1492.33 250.784C1478.05 250.784 1465.56 247.334 1454.86 240.434C1444.15 233.416 1435.82 224.078 1429.88 212.42C1423.93 200.643 1420.96 187.618 1420.96 173.343C1420.96 159.068 1423.93 146.102 1429.88 134.444C1435.82 122.667 1444.15 113.27 1454.86 106.251C1465.56 99.2329 1478.05 95.7236 1492.33 95.7236C1501.49 95.7236 1509.52 97.2106 1516.42 100.185C1523.32 103.039 1528.91 106.489 1533.19 110.534C1537.47 114.459 1540.45 118.087 1542.11 121.418V100.006H1596V246.501H1542.65ZM1474.13 173.343C1474.13 180.004 1475.68 186.012 1478.77 191.365C1481.86 196.599 1485.96 200.703 1491.08 203.677C1496.31 206.651 1502.08 208.138 1508.39 208.138C1514.93 208.138 1520.7 206.651 1525.7 203.677C1530.69 200.703 1534.62 196.599 1537.47 191.365C1540.45 186.012 1541.93 180.004 1541.93 173.343C1541.93 166.681 1540.45 160.733 1537.47 155.499C1534.62 150.146 1530.69 145.983 1525.7 143.009C1520.7 139.916 1514.93 138.37 1508.39 138.37C1502.08 138.37 1496.31 139.916 1491.08 143.009C1485.96 145.983 1481.86 150.146 1478.77 155.499C1475.68 160.733 1474.13 166.681 1474.13 173.343Z" fill="#FFFFEF"></path><path d="M1415.43 246.502H1361V0.975586H1415.43V246.502Z" fill="#FFFFEF"></path><path d="M1246.06 250.785C1231.9 250.785 1219.59 247.335 1209.12 240.435C1198.65 233.417 1190.5 224.079 1184.67 212.421C1178.96 200.644 1176.11 187.619 1176.11 173.344C1176.11 159.069 1178.96 146.103 1184.67 134.445C1190.5 122.668 1198.65 113.271 1209.12 106.252C1219.59 99.2338 1231.9 95.7246 1246.06 95.7246C1255.45 95.7246 1263.78 97.2116 1271.04 100.185C1278.29 103.04 1284.18 106.49 1288.7 110.535C1293.22 114.46 1295.96 118.088 1296.91 121.419V0.975586H1351.15V246.502H1297.45V222.77C1295.18 227.172 1291.5 231.573 1286.38 235.975C1281.27 240.257 1275.26 243.766 1268.36 246.502C1261.46 249.357 1254.03 250.785 1246.06 250.785ZM1262.65 208.139C1269.19 208.139 1275.02 206.652 1280.14 203.678C1285.37 200.704 1289.48 196.6 1292.45 191.366C1295.42 186.013 1296.91 180.005 1296.91 173.344C1296.91 166.682 1295.42 160.734 1292.45 155.5C1289.48 150.147 1285.37 145.984 1280.14 143.01C1275.02 139.917 1269.19 138.371 1262.65 138.371C1256.35 138.371 1250.64 139.917 1245.52 143.01C1240.52 145.984 1236.54 150.147 1233.57 155.5C1230.71 160.734 1229.28 166.682 1229.28 173.344C1229.28 180.005 1230.71 186.013 1233.57 191.366C1236.54 196.6 1240.52 200.704 1245.52 203.678C1250.64 206.652 1256.35 208.139 1262.65 208.139Z" fill="#FFFFEF"></path><path d="M1123.54 246.502V100.007H1173.68V246.502H1123.54ZM1125.68 83.7697L1109.8 61.8222L1167.79 11.8604L1193.49 44.1571L1125.68 83.7697Z" fill="#FFFFEF"></path><path d="M1056.81 246.501H1002.57V100.006H1056.81V122.667H1055.92C1056.87 119.931 1059.19 116.482 1062.88 112.318C1066.57 108.036 1071.74 104.229 1078.41 100.898C1085.07 97.4485 1093.22 95.7236 1102.85 95.7236C1109.63 95.7236 1115.88 96.7942 1121.59 98.9355C1127.3 100.958 1131.46 102.921 1134.08 104.824L1113.02 148.897C1111.36 146.875 1108.38 144.793 1104.1 142.652C1099.94 140.392 1094.7 139.262 1088.4 139.262C1081.14 139.262 1075.13 141.106 1070.38 144.793C1065.74 148.481 1062.29 152.942 1060.03 158.176C1057.89 163.41 1056.81 168.347 1056.81 172.986V246.501Z" fill="#FFFFEF"></path><path d="M945.579 100.007H1006.96L937.906 169.954L1014.1 246.502H951.289L894.725 187.619V246.502H840.48V0.975586H894.725V151.039L945.579 100.007Z" fill="#FFFFEF"></path><path d="M659.131 184.764C659.488 189.998 661.153 194.637 664.127 198.682C667.101 202.726 671.205 205.938 676.439 208.317C681.792 210.578 688.097 211.708 695.353 211.708C702.253 211.708 708.438 210.994 713.91 209.566C719.501 208.139 724.319 206.355 728.364 204.213C732.527 202.072 735.739 199.871 737.999 197.611L759.054 231.157C756.081 234.369 751.858 237.521 746.386 240.614C741.032 243.588 733.955 246.027 725.152 247.93C716.349 249.833 705.226 250.785 691.784 250.785C675.606 250.785 661.213 247.751 648.603 241.685C635.994 235.618 626.061 226.696 618.804 214.919C611.548 203.143 607.92 188.749 607.92 171.738C607.92 157.463 611.013 144.616 617.199 133.196C623.503 121.657 632.603 112.557 644.499 105.896C656.395 99.1151 670.729 95.7248 687.502 95.7248C703.442 95.7248 717.241 98.6393 728.899 104.468C740.676 110.297 749.716 118.981 756.021 130.52C762.445 141.94 765.656 156.214 765.656 173.344C765.656 174.296 765.597 176.199 765.478 179.054C765.478 181.909 765.359 183.812 765.121 184.764H659.131ZM714.624 156.393C714.505 152.586 713.494 148.839 711.591 145.151C709.687 141.345 706.832 138.252 703.026 135.873C699.219 133.375 694.342 132.126 688.394 132.126C682.446 132.126 677.391 133.315 673.227 135.694C669.183 137.954 666.09 140.928 663.949 144.616C661.807 148.304 660.618 152.229 660.38 156.393H714.624ZM666.09 83.7697L650.209 61.8222L708.2 11.8604L733.895 44.1571L666.09 83.7697Z" fill="#FFFFEF"></path><path d="M542.317 95.7236C552.547 95.7236 562.54 97.8054 572.294 101.969C582.049 106.132 590.078 112.734 596.383 121.775C602.688 130.697 605.84 142.474 605.84 157.105V246.501H551.417V166.027C551.417 155.559 548.919 147.708 543.923 142.474C538.927 137.121 532.384 134.444 524.295 134.444C518.942 134.444 513.886 135.872 509.128 138.726C504.489 141.462 500.682 145.388 497.708 150.503C494.853 155.499 493.426 161.269 493.426 167.811V246.501H439.182V100.006H493.426V121.597C494.853 117.671 497.827 113.746 502.348 109.82C506.987 105.775 512.756 102.445 519.656 99.8276C526.674 97.0916 534.228 95.7236 542.317 95.7236Z" fill="#FFFFEF"></path><path fill-rule="evenodd" clip-rule="evenodd" d="M465.233 45.9412C467.85 45.9412 469.991 45.5249 471.657 44.6922C474.1 45.5546 477.948 51.1514 473.798 66.6397C478.556 61.2866 482.363 55.2793 485.218 48.6177C488.192 41.9562 489.679 35.2351 489.679 28.4546C489.679 20.6034 487.538 14.6556 483.255 10.6111C479.092 6.44759 474.095 4.36584 468.267 4.36584C462.438 4.36584 457.442 6.44759 453.278 10.6111C449.115 14.7746 447.033 19.8302 447.033 25.778C447.033 31.9638 448.877 36.9005 452.564 40.5882C456.371 44.1569 460.594 45.9412 465.233 45.9412ZM373.518 246.502H427.94V0.975586H373.518V246.502Z" fill="#FFFFEF"></path><path d="M285.334 250.784C269.275 250.784 255 247.512 242.51 240.97C230.138 234.308 220.384 225.208 213.246 213.669C206.228 202.011 202.719 188.688 202.719 173.7C202.719 158.711 206.228 145.388 213.246 133.73C220.384 121.954 230.138 112.675 242.51 105.894C255 99.1139 269.275 95.7236 285.334 95.7236C301.393 95.7236 315.549 99.1139 327.802 105.894C340.054 112.675 349.63 121.954 356.53 133.73C363.429 145.388 366.879 158.711 366.879 173.7C366.879 188.688 363.429 202.011 356.53 213.669C349.63 225.208 340.054 234.308 327.802 240.97C315.549 247.512 301.393 250.784 285.334 250.784ZM285.334 206.175C291.52 206.175 296.873 204.807 301.393 202.071C305.914 199.335 309.423 195.469 311.921 190.473C314.419 185.476 315.668 179.826 315.668 173.521C315.668 167.098 314.419 161.388 311.921 156.392C309.423 151.395 305.914 147.47 301.393 144.615C296.873 141.76 291.52 140.332 285.334 140.332C279.148 140.332 273.736 141.76 269.097 144.615C264.576 147.47 261.008 151.395 258.39 156.392C255.892 161.388 254.643 167.098 254.643 173.521C254.643 179.826 255.892 185.476 258.39 190.473C261.008 195.469 264.576 199.335 269.097 202.071C273.736 204.807 279.148 206.175 285.334 206.175Z" fill="#FFFFEF"></path><path d="M144.781 246.501H84.4699L0.605469 10.9668H60.7381L114.625 178.517L168.513 10.9668H228.645L144.781 246.501Z" fill="#FFFFEF"></path></svg>